<svg xmlns="http://www.w3.org/2000/svg" width="80.683" height="80.684" viewBox="0 0 80.683 80.684">
  <path id="Icon_awesome-carrot" data-name="Icon awesome-carrot" d="M46.992,24.68A19.577,19.577,0,0,0,23.32,29.849l8.7,8.7a2.519,2.519,0,1,1-3.562,3.562L20.547,34.2.358,75.6a3.574,3.574,0,0,0,0,3.1,3.543,3.543,0,0,0,4.728,1.623L26.141,70.053,18.387,62.3a2.5,2.5,0,0,1,0-3.562,2.53,2.53,0,0,1,3.562,0l8.983,8.983,16.075-7.848a19.579,19.579,0,0,0-.016-35.192Zm14.515-5.5C64.58,12.765,62.988,5.185,56.731,0,48.8,6.572,48.457,16.942,55.486,23.939L56.747,25.2c7,7.029,17.383,6.682,23.939-1.245C75.5,17.7,67.921,16.107,61.506,19.18Z" transform="translate(-0.003)" fill="#fff"/>
</svg>
