<svg xmlns="http://www.w3.org/2000/svg" width="119.999" height="119.999" viewBox="0 0 119.999 119.999">
  <path id="Icon_awesome-plus" data-name="Icon awesome-plus" d="M111.428,49.393H72.857V10.821A8.572,8.572,0,0,0,64.285,2.25H55.714a8.572,8.572,0,0,0-8.571,8.571V49.393H8.571A8.572,8.572,0,0,0,0,57.964v8.571a8.572,8.572,0,0,0,8.571,8.571H47.143v38.571a8.572,8.572,0,0,0,8.571,8.571h8.571a8.572,8.572,0,0,0,8.571-8.571V75.107h38.571A8.572,8.572,0,0,0,120,66.535V57.964A8.572,8.572,0,0,0,111.428,49.393Z" transform="translate(0 -2.25)" fill="#fff"/>
</svg>
