<svg xmlns="http://www.w3.org/2000/svg" width="34.926" height="36" viewBox="0 0 34.926 36">
  <path id="Icon_simple-postgresql" data-name="Icon simple-postgresql" d="M25.692,0A15.2,15.2,0,0,0,21.56.6l-.095.03A16.383,16.383,0,0,0,18.9.387,8.569,8.569,0,0,0,14.391,1.5,17.412,17.412,0,0,0,8.046.5,7.73,7.73,0,0,0,2.721,2.73C1.24,4.3.458,6.723.623,10.023a29.472,29.472,0,0,0,.735,4.318,50.851,50.851,0,0,0,1.789,6.228,13.63,13.63,0,0,0,2.872,5.154A3.533,3.533,0,0,0,8.6,26.837a3.31,3.31,0,0,0,1.972-.828,2.367,2.367,0,0,0,.849.677,4.118,4.118,0,0,0,1.02.4,7.087,7.087,0,0,0,2.922.15,5.523,5.523,0,0,0,1.312-.405c.017.5.036.979.056,1.47a13.956,13.956,0,0,0,.567,4.248,5.539,5.539,0,0,0,1.09,2.2,4.36,4.36,0,0,0,4.2,1.132,6.1,6.1,0,0,0,3.973-2.3c1.065-1.515,1.545-3.688,1.639-7.214.024-.191.052-.353.083-.5l.253.022h.03a8.91,8.91,0,0,0,4.069-.7,5.54,5.54,0,0,0,2.52-1.924,1.925,1.925,0,0,0,.36-.965,1.96,1.96,0,0,0-.669-1.538,2.015,2.015,0,0,0-2.055-.3,9.4,9.4,0,0,1-1.8.219,34.507,34.507,0,0,0,3.687-8.767,19.114,19.114,0,0,0,.675-4.42,5.142,5.142,0,0,0-.87-3.464A10.748,10.748,0,0,0,25.94.006c-.083,0-.165,0-.247,0Zm-.07.96a9.741,9.741,0,0,1,8.042,3.633,4.44,4.44,0,0,1,.655,2.826,18.458,18.458,0,0,1-.644,4.185,33.632,33.632,0,0,1-4.346,9.732,1.134,1.134,0,0,0,.237.129,6.294,6.294,0,0,0,3.4-.072,1.358,1.358,0,0,1,1.241.112.78.78,0,0,1,.275.638,1.056,1.056,0,0,1-.195.5,5.117,5.117,0,0,1-2.1,1.567,8.284,8.284,0,0,1-3.174.619,4.863,4.863,0,0,1-1.478-.17l-.027-.01c-.165,1.59-.545,4.729-.792,6.162a5.038,5.038,0,0,1-1.206,2.76,5.342,5.342,0,0,1-2.851,1.371,3.865,3.865,0,0,1-3.424-.642,4.681,4.681,0,0,1-1.266-1.931,5.641,5.641,0,0,1-.279-1.389c-.069-.6-.12-1.327-.154-2.151q-.069-1.891-.045-3.785a4.591,4.591,0,0,1-2.328,1.14,6.141,6.141,0,0,1-2.507-.135,3.414,3.414,0,0,1-.78-.3,1.442,1.442,0,0,1-.66-.6.84.84,0,0,1-.086-.572.915.915,0,0,1,.327-.5,2.9,2.9,0,0,1,1.283-.5,4.115,4.115,0,0,0,1.684-.555,9.22,9.22,0,0,0,.806-.933q0-.031,0-.061A4.44,4.44,0,0,1,13.23,21.5c-.225.237-1.374,1.452-2.775,3.138A2.743,2.743,0,0,1,8.528,25.78a2.522,2.522,0,0,1-1.836-.828,13.288,13.288,0,0,1-2.629-4.779,49.963,49.963,0,0,1-1.75-6.1A30.037,30.037,0,0,1,1.6,9.924C1.443,6.8,2.174,4.7,3.426,3.369A6.739,6.739,0,0,1,8.075,1.443a16.668,16.668,0,0,1,6.441,1.1,7.335,7.335,0,0,1,4.338-1.2,11.085,11.085,0,0,1,2.521.327l.03-.014a10.281,10.281,0,0,1,1.108-.321A14.439,14.439,0,0,1,25.62.963Zm.228,1h-.219a13.11,13.11,0,0,0-2.556.288A11.239,11.239,0,0,1,27.35,5.628a12.66,12.66,0,0,1,1.7,2.88,6.9,6.9,0,0,1,.339.99,2.056,2.056,0,0,1,.06.354.66.66,0,0,1-.018.216s-.007.015-.009.019c.045,1.314-.281,2.2-.319,3.459-.03.909.2,1.977.26,3.142a5.953,5.953,0,0,1-.789,3.479c.06.072.114.144.171.216a32.773,32.773,0,0,0,3.96-9.035A17.66,17.66,0,0,0,33.312,7.4a3.882,3.882,0,0,0-.443-2.19,8.6,8.6,0,0,0-7.02-3.247Zm-7.185.384a6.025,6.025,0,0,0-4.01,1.342,7.425,7.425,0,0,0-2.1,3.128,13.266,13.266,0,0,0-.769,3.621l.019-.012A7.772,7.772,0,0,1,13.8,9.654a3.938,3.938,0,0,1,2.3.059,2.61,2.61,0,0,1,1.563,1.972c1.056,4.885-.329,6.7-.839,8.073a14.415,14.415,0,0,0-.5,1.519,1.474,1.474,0,0,1,.194-.039,1.641,1.641,0,0,1,.81.162,1.971,1.971,0,0,1,1.056,1.17A2.06,2.06,0,0,1,18.49,23a.5.5,0,0,1,.03.191q-.085,2.8.019,5.607c.035.807.086,1.518.15,2.079A5.728,5.728,0,0,0,18.9,32a3.81,3.81,0,0,0,.979,1.536,2.753,2.753,0,0,0,2.563.426,4.365,4.365,0,0,0,2.338-1.084,4.054,4.054,0,0,0,.939-2.232c.271-1.575.817-6.142.883-7a2.874,2.874,0,0,1,.273-1.525,1.775,1.775,0,0,1,.828-.757,2.816,2.816,0,0,1,.385-.139q-.174-.25-.365-.487a6.684,6.684,0,0,1-1-1.648q-.181-.369-.385-.725c-.2-.36-.451-.81-.715-1.316a16.338,16.338,0,0,1-1.4-3.435,3.583,3.583,0,0,1,.421-3.3c.675-.774,1.86-1.1,3.639-.915-.052-.158-.084-.288-.173-.5a11.726,11.726,0,0,0-1.561-2.646,9.7,9.7,0,0,0-7.719-3.9h-.173ZM8.7,2.427c-.191,0-.381.006-.57.016A5.725,5.725,0,0,0,4.16,4.056C3.134,5.142,2.459,6.922,2.606,9.87a31.614,31.614,0,0,0,.688,3.978,49.363,49.363,0,0,0,1.713,5.973,13.048,13.048,0,0,0,2.385,4.406,1.535,1.535,0,0,0,1.092.545,1.745,1.745,0,0,0,1.2-.777q1.309-1.579,2.715-3.072A5.245,5.245,0,0,1,10.644,16.2a18.641,18.641,0,0,0,.158-2.964c-.018-.8-.075-1.329-.075-1.661q0-.014,0-.029v-.007l0-.009v0a14.839,14.839,0,0,1,.888-5.064A8.662,8.662,0,0,1,13.6,3.294,17,17,0,0,0,9.27,2.442q-.285-.015-.57-.015ZM27.3,10.35a2.447,2.447,0,0,0-1.89.62,2.705,2.705,0,0,0-.2,2.4,15.654,15.654,0,0,0,1.316,3.213c.255.49.5.931.7,1.29a9.072,9.072,0,0,1,.438.833,4.821,4.821,0,0,0,.267.543,5.048,5.048,0,0,0,.424-2.5c-.052-1.054-.3-2.133-.261-3.225.041-1.276.292-2.108.315-3.094a8.689,8.689,0,0,0-1.11-.072Zm-12.351.172a4.23,4.23,0,0,0-.924.111,7,7,0,0,0-1.73.673,3.626,3.626,0,0,0-.523.342l-.033.03c.009.219.052.75.071,1.531a19.67,19.67,0,0,1-.168,3.126,3.979,3.979,0,0,0,3.69,4.692,14.672,14.672,0,0,1,.547-1.623c.609-1.641,1.807-2.838.8-7.509a1.481,1.481,0,0,0-.942-1.248,2.211,2.211,0,0,0-.786-.126Zm11.875.306H26.9a1.316,1.316,0,0,1,.27.033.617.617,0,0,1,.207.083.246.246,0,0,1,.113.165l0,.012h0a.36.36,0,0,1-.053.2,1,1,0,0,1-.165.225,1.016,1.016,0,0,1-.579.318.885.885,0,0,1-.615-.155.912.912,0,0,1-.195-.177.39.39,0,0,1-.094-.19.255.255,0,0,1,.063-.192.576.576,0,0,1,.175-.135,1.673,1.673,0,0,1,.56-.174,1.938,1.938,0,0,1,.24-.019Zm-11.73.252a1.81,1.81,0,0,1,.249.019,1.643,1.643,0,0,1,.59.183.669.669,0,0,1,.2.159.334.334,0,0,1,.081.255.453.453,0,0,1-.113.231.974.974,0,0,1-.214.195.96.96,0,0,1-.672.17,1.092,1.092,0,0,1-.63-.342,1.065,1.065,0,0,1-.177-.246.42.42,0,0,1-.062-.266.383.383,0,0,1,.287-.292,1.3,1.3,0,0,1,.461-.06Zm13.59,11.014h0c-.221.08-.4.112-.555.18a.678.678,0,0,0-.358.321,1.927,1.927,0,0,0-.152,1,.765.765,0,0,0,.222.1A4.184,4.184,0,0,0,29,23.823a7.818,7.818,0,0,0,2.76-.525,5.925,5.925,0,0,0,1.415-.923h0a7.013,7.013,0,0,1-3.994.018,1.972,1.972,0,0,1-.5-.3Zm-12.046.141h-.031c-.08.007-.195.035-.419.282a10.852,10.852,0,0,1-1.135,1.3,4.812,4.812,0,0,1-2.108.754,2.877,2.877,0,0,0-.691.216.39.39,0,0,0,.1.08,2.5,2.5,0,0,0,.543.213,5.235,5.235,0,0,0,2.092.12,3.582,3.582,0,0,0,2.41-1.56.774.774,0,0,0,.036-.719,1.114,1.114,0,0,0-.5-.59.979.979,0,0,0-.306-.09Z" transform="translate(-0.601)" fill="#f35a5a"/>
</svg>
